<svg id="svg" version="1.1" xmlns="http://www.w3.org/2000/svg" xmlns:xlink="http://www.w3.org/1999/xlink" width="400" height="277.2277227722772" viewBox="0, 0, 400,277.2277227722772"><g id="svgg"><path id="path0" d="M234.455 6.690 C 229.880 15.547,138.614 259.014,138.614 262.364 C 138.614 268.468,151.118 276.323,157.978 274.529 C 168.510 271.775,264.460 17.662,258.538 8.208 C 252.839 -0.890,238.827 -1.773,234.455 6.690 M50.010 82.662 C -10.827 143.634,-11.064 134.067,52.853 197.257 C 101.141 244.995,108.740 250.072,118.020 240.792 C 127.359 231.453,122.210 223.328,80.346 181.334 L 37.920 138.776 80.346 95.722 C 122.455 52.991,127.164 45.580,118.020 36.436 C 108.443 26.859,99.884 32.677,50.010 82.662 M281.980 36.436 C 272.836 45.580,277.545 52.991,319.654 95.722 L 362.080 138.776 319.654 181.334 C 277.790 223.328,272.641 231.453,281.980 240.792 C 291.260 250.072,298.859 244.995,347.147 197.257 C 411.064 134.067,410.827 143.634,349.990 82.662 C 300.116 32.677,291.557 26.859,281.980 36.436 " stroke="none" fill="#FFFFFF" fill-rule="evenodd"></path></g></svg>